# xmcd
#
# Track frame offsets:
#	150
#	19322
#	38351
#	57473
#	75661
#	93544
#	111169
#	128346
#	148333
#	165926
#	184374
#	202301
#
# Disc length: 2981 seconds
#
# Revision: 0
# Processed by: cddbd v1.5.2PL0 Copyright (c) Steve Scherf et al.
# Submitted via: audiograbber 1.83.01
#
DISCID=a40ba30c
DTITLE=ต่าย อรทัย - อยู่ในใจเสมอ
DYEAR=1900
DGENRE=
TTITLE0=อยู่ในใจเสมอ
TTITLE1=วันนี้บ่มีอ้าย
TTITLE2=ส.ค.ส. ห่อรัก
TTITLE3=ฝากเพลงถึงยาย
TTITLE4=แรงใจในเงาจันทร์
TTITLE5=บ่ฮักบ่ต้องสงสาร
TTITLE6=ดอกหญ้าในป่าปูน
TTITLE7=ขอใจกันหนาว
TTITLE8=โทรหาแหน่เด๊อ
TTITLE9=กินข้าวหรือยัง
TTITLE10=รอพี่ที่นครพนม
TTITLE11=ขอสิทธิ์แค่ร้องไห้
EXTD=
EXTT0=
EXTT1=
EXTT2=
EXTT3=
EXTT4=
EXTT5=
EXTT6=
EXTT7=
EXTT8=
EXTT9=
EXTT10=
EXTT11=
PLAYORDER=
